{"glyphs":{"0":{"ha":1017,"x_min":73,"x_max":943,"o":"m 943 180 l 764 0 l 419 0 l 419 180 l 644 180 l 644 900 l 764 900 l 943 720 l 943 180 m 373 0 l 254 0 l 73 180 l 73 720 l 254 900 l 597 900 l 597 720 l 373 720 l 373 0 z "},"1":{"ha":791,"x_min":96,"x_max":696,"o":"m 96 810 l 186 900 l 546 900 l 546 221 l 246 221 l 246 720 l 96 720 l 96 810 m 96 180 l 696 180 l 696 0 l 96 0 l 96 180 z "},"2":{"ha":993,"x_min":73,"x_max":920,"o":"m 373 0 l 73 0 l 73 323 l 265 503 l 620 503 l 620 900 l 740 900 l 920 720 l 920 498 l 740 318 l 373 318 l 373 0 m 373 738 l 373 607 l 73 607 l 73 720 l 254 900 l 572 900 l 572 738 l 373 738 m 420 0 l 420 162 l 920 162 l 920 0 l 420 0 z "},"3":{"ha":1014,"x_min":71,"x_max":941,"o":"m 760 900 l 941 720 l 941 543 l 834 453 l 941 361 l 941 179 l 760 0 l 640 0 l 640 380 l 431 380 l 431 536 l 640 536 l 640 900 l 760 900 m 370 709 l 370 577 l 71 577 l 71 720 l 250 900 l 593 900 l 593 709 l 370 709 m 71 180 l 71 319 l 370 319 l 370 192 l 593 192 l 593 0 l 250 0 l 71 180 z "},"4":{"ha":944,"x_min":9,"x_max":907,"o":"m 805 301 l 907 301 l 907 125 l 805 125 l 805 0 l 517 0 l 517 900 l 805 900 l 805 301 m 9 292 l 469 839 l 469 483 l 306 301 l 469 301 l 469 125 l 80 125 l 9 292 z "},"5":{"ha":1016,"x_min":73,"x_max":925,"o":"m 343 403 l 73 403 l 73 900 l 884 900 l 884 720 l 343 720 l 343 403 m 625 0 l 625 403 l 391 403 l 391 571 l 745 571 l 925 391 l 925 180 l 745 0 l 625 0 m 578 180 l 578 0 l 253 0 l 73 180 l 73 281 l 373 281 l 373 180 l 578 180 z "},"6":{"ha":1017,"x_min":73,"x_max":943,"o":"m 373 180 l 486 180 l 486 0 l 254 0 l 73 180 l 73 720 l 254 900 l 486 900 l 486 720 l 373 720 l 373 180 m 419 391 l 419 559 l 767 559 l 943 394 l 943 180 l 764 0 l 534 0 l 534 180 l 655 180 l 655 391 l 419 391 m 534 720 l 534 900 l 764 900 l 943 720 l 943 654 l 644 654 l 644 720 l 534 720 z "},"7":{"ha":881,"x_min":35,"x_max":846,"o":"m 536 674 l 824 674 l 552 0 l 235 0 l 536 674 m 329 583 l 35 583 l 35 810 l 124 900 l 846 900 l 846 720 l 329 720 l 329 583 z "},"8":{"ha":1045,"x_min":73,"x_max":972,"o":"m 370 180 l 500 180 l 500 0 l 254 0 l 73 180 l 73 367 l 181 456 l 73 544 l 73 720 l 254 900 l 500 900 l 500 720 l 370 720 l 370 540 l 500 540 l 500 372 l 370 372 l 370 180 m 687 720 l 548 720 l 548 900 l 792 899 l 972 720 l 972 545 l 865 455 l 972 365 l 972 179 l 792 -1 l 548 0 l 548 180 l 687 180 l 687 372 l 548 372 l 548 540 l 687 540 l 687 720 z "},"9":{"ha":1017,"x_min":73,"x_max":943,"o":"m 644 720 l 531 720 l 531 900 l 764 900 l 943 720 l 943 180 l 764 0 l 531 0 l 531 180 l 644 180 l 644 720 m 597 517 l 597 336 l 254 336 l 73 517 l 73 720 l 254 900 l 485 900 l 485 720 l 373 720 l 373 517 l 597 517 m 485 180 l 485 0 l 254 0 l 73 180 l 73 240 l 373 240 l 373 180 l 485 180 z "}," ":{"ha":359,"x_min":0,"x_max":0,"o":""},"!":{"ha":511,"x_min":96,"x_max":415,"o":"m 396 300 l 115 300 l 96 900 l 415 900 l 396 300 m 106 210 l 406 210 l 406 0 l 106 0 l 106 210 z "},"\"":{"ha":922,"x_min":123,"x_max":798,"o":"m 123 900 l 401 900 l 370 450 l 154 450 l 123 900 m 519 900 l 798 900 l 766 450 l 551 450 l 519 900 z "},"#":{"ha":1152,"x_min":126,"x_max":1026,"o":"m 472 354 l 615 354 l 601 193 l 457 193 l 440 0 l 279 0 l 296 193 l 126 193 l 140 354 l 309 354 l 326 546 l 157 546 l 172 707 l 340 707 l 357 900 l 518 900 l 502 707 l 647 707 l 632 546 l 487 546 l 472 354 m 710 900 l 871 900 l 854 707 l 1026 707 l 1011 546 l 841 546 l 825 354 l 995 354 l 980 193 l 810 193 l 793 0 l 632 0 l 710 900 z "},"$":{"ha":1182,"x_min":156,"x_max":1026,"o":"m 456 541 l 846 541 l 1026 359 l 1026 180 l 846 0 l 726 0 l 726 359 l 336 359 l 156 541 l 156 720 l 336 900 l 456 900 l 456 541 m 456 180 l 680 180 l 680 -106 l 475 -106 l 475 0 l 336 0 l 156 180 l 156 270 l 456 270 l 456 180 m 502 720 l 502 1001 l 705 1001 l 705 900 l 846 900 l 1026 720 l 1026 630 l 726 630 l 726 720 l 502 720 z "},"%":{"ha":1622,"x_min":111,"x_max":1510,"o":"m 698 531 l 562 395 l 428 395 l 428 531 l 472 531 l 472 766 l 428 766 l 428 901 l 562 901 l 698 766 l 698 531 m 337 531 l 380 531 l 380 395 l 247 395 l 111 531 l 111 766 l 247 901 l 380 901 l 380 766 l 337 766 l 337 531 m 1510 136 l 1375 0 l 1240 0 l 1240 136 l 1285 136 l 1285 371 l 1240 371 l 1240 506 l 1375 506 l 1510 371 l 1510 136 m 1149 136 l 1193 136 l 1193 0 l 1059 0 l 924 136 l 924 371 l 1059 506 l 1193 506 l 1193 371 l 1149 371 l 1149 136 m 922 989 l 1091 989 l 675 -133 l 506 -133 l 922 989 z "},"&":{"ha":1130,"x_min":102,"x_max":1071,"o":"m 194 613 l 193 614 l 193 748 l 347 900 l 481 900 l 481 665 l 719 389 l 923 548 l 1071 377 l 870 214 l 1055 0 l 723 0 l 194 613 m 254 0 l 102 149 l 102 366 l 232 499 l 372 336 l 372 173 l 515 173 l 633 33 l 594 0 l 254 0 m 926 749 l 926 630 l 644 630 l 644 720 l 529 720 l 529 900 l 775 900 l 926 749 z "},"'":{"ha":524,"x_min":123,"x_max":401,"o":"m 123 900 l 401 900 l 370 450 l 154 450 l 123 900 z "},"(":{"ha":663,"x_min":161,"x_max":567,"o":"m 456 84 l 567 84 l 567 -96 l 336 -96 l 161 84 l 161 817 l 336 996 l 567 996 l 567 817 l 456 817 l 456 84 z "},")":{"ha":663,"x_min":97,"x_max":503,"o":"m 208 84 l 97 84 l 97 -96 l 328 -96 l 503 84 l 503 817 l 328 996 l 97 996 l 97 817 l 208 817 l 208 84 z "},"*":{"ha":944,"x_min":109,"x_max":835,"o":"m 472 460 l 326 313 l 196 407 l 291 591 l 109 684 l 157 834 l 360 803 l 392 1004 l 550 1004 l 581 803 l 786 836 l 835 684 l 651 591 l 747 406 l 618 313 l 472 460 z "},"+":{"ha":976,"x_min":126,"x_max":850,"o":"m 126 502 l 408 502 l 408 782 l 571 782 l 571 502 l 850 502 l 850 340 l 571 340 l 571 58 l 408 58 l 408 340 l 126 340 l 126 502 z "},",":{"ha":499,"x_min":100,"x_max":399,"o":"m 100 210 l 399 210 l 399 0 l 279 -180 l 100 -180 l 183 0 l 100 0 l 100 210 z "},"-":{"ha":851,"x_min":126,"x_max":725,"o":"m 126 502 l 725 502 l 725 340 l 126 340 l 126 502 z "},".":{"ha":499,"x_min":100,"x_max":399,"o":"m 100 210 l 399 210 l 399 0 l 100 0 l 100 210 z "},"/":{"ha":506,"x_min":-54,"x_max":530,"o":"m 361 962 l 530 962 l 115 -133 l -54 -133 l 361 962 z "},":":{"ha":499,"x_min":100,"x_max":399,"o":"m 100 720 l 399 720 l 399 511 l 100 511 l 100 720 m 100 210 l 399 210 l 399 0 l 100 0 l 100 210 z "},";":{"ha":499,"x_min":100,"x_max":399,"o":"m 100 720 l 399 720 l 399 511 l 100 511 l 100 720 m 100 210 l 399 210 l 399 0 l 279 -180 l 100 -180 l 183 0 l 100 0 l 100 210 z "},"<":{"ha":976,"x_min":126,"x_max":850,"o":"m 126 355 l 126 515 l 850 713 l 850 544 l 126 355 m 163 316 l 469 395 l 850 294 l 850 126 l 163 316 z "},"=":{"ha":976,"x_min":126,"x_max":850,"o":"m 126 678 l 850 678 l 850 516 l 126 516 l 126 678 m 126 300 l 850 300 l 850 138 l 126 138 l 126 300 z "},">":{"ha":976,"x_min":126,"x_max":850,"o":"m 850 484 l 850 324 l 126 126 l 126 295 l 850 484 m 813 523 l 507 444 l 126 545 l 126 713 l 813 523 z "},"?":{"ha":954,"x_min":54,"x_max":900,"o":"m 720 900 l 900 720 l 900 564 l 720 384 l 591 384 l 591 300 l 290 300 l 290 384 l 471 564 l 600 564 l 600 720 l 354 720 l 354 630 l 54 630 l 54 719 l 234 900 l 720 900 m 290 210 l 591 210 l 591 0 l 290 0 l 290 210 z "},"@":{"ha":1075,"x_min":64,"x_max":1010,"o":"m 64 179 l 64 660 l 273 869 l 519 869 l 519 720 l 361 720 l 214 572 l 214 268 l 361 120 l 532 120 l 532 -29 l 271 -29 l 64 179 m 711 720 l 555 720 l 555 869 l 802 869 l 1010 660 l 1010 270 l 862 270 l 862 570 l 711 720 m 466 270 l 466 570 l 610 570 l 610 218 l 707 121 l 922 120 l 802 -29 l 569 -29 l 569 270 l 466 270 z "},"A":{"ha":1017,"x_min":6,"x_max":1011,"o":"m 670 98 l 376 98 l 438 277 l 601 277 l 360 900 l 652 900 l 1011 0 l 708 0 l 670 98 m 296 0 l 6 0 l 328 859 l 460 502 l 296 0 z "},"B":{"ha":1014,"x_min":79,"x_max":955,"o":"m 649 720 l 427 720 l 427 900 l 774 900 l 955 720 l 955 537 l 865 447 l 955 357 l 955 180 l 774 0 l 427 0 l 427 180 l 649 180 l 649 372 l 427 372 l 427 528 l 649 528 l 649 720 m 79 900 l 379 900 l 379 0 l 79 0 l 79 900 z "},"C":{"ha":977,"x_min":66,"x_max":912,"o":"m 366 0 l 246 0 l 66 180 l 66 720 l 246 900 l 366 900 l 366 0 m 413 720 l 413 900 l 732 900 l 912 720 l 912 539 l 612 539 l 612 720 l 413 720 m 413 0 l 413 180 l 612 180 l 612 311 l 912 311 l 912 180 l 732 0 l 413 0 z "},"D":{"ha":1008,"x_min":79,"x_max":949,"o":"m 427 0 l 427 180 l 649 180 l 649 720 l 427 720 l 427 900 l 769 900 l 949 720 l 949 180 l 769 0 l 427 0 m 79 900 l 379 900 l 379 0 l 79 0 l 79 900 z "},"E":{"ha":960,"x_min":79,"x_max":895,"o":"m 379 370 l 379 0 l 79 0 l 79 900 l 379 900 l 379 543 l 666 543 l 666 370 l 379 370 m 427 726 l 427 900 l 895 900 l 895 640 l 613 640 l 613 726 l 427 726 m 427 0 l 427 180 l 595 180 l 595 270 l 895 270 l 895 0 l 427 0 z "},"F":{"ha":901,"x_min":79,"x_max":884,"o":"m 79 900 l 379 900 l 379 498 l 656 498 l 656 321 l 379 321 l 379 0 l 79 0 l 79 900 m 427 720 l 427 900 l 884 900 l 884 602 l 584 602 l 584 720 l 427 720 z "},"G":{"ha":1014,"x_min":78,"x_max":948,"o":"m 378 180 l 635 180 l 635 0 l 258 0 l 78 180 l 78 720 l 258 900 l 378 900 l 378 180 m 536 499 l 948 499 l 948 0 l 682 0 l 682 321 l 536 321 l 536 499 m 425 720 l 425 900 l 791 900 l 948 720 l 948 630 l 648 630 l 648 720 l 425 720 z "},"H":{"ha":1028,"x_min":79,"x_max":949,"o":"m 647 900 l 949 900 l 949 0 l 649 0 l 649 366 l 427 366 l 427 546 l 647 546 l 647 900 m 379 0 l 79 0 l 79 900 l 379 900 l 379 0 z "},"I":{"ha":612,"x_min":66,"x_max":546,"o":"m 66 192 l 156 192 l 156 709 l 66 709 l 66 900 l 546 900 l 546 709 l 456 709 l 456 192 l 546 192 l 546 0 l 66 0 l 66 192 z "},"J":{"ha":928,"x_min":35,"x_max":858,"o":"m 144 900 l 858 900 l 858 180 l 678 0 l 558 0 l 558 704 l 144 704 l 144 900 m 347 180 l 511 180 l 511 0 l 216 0 l 35 180 l 35 377 l 347 377 l 347 180 z "},"K":{"ha":929,"x_min":79,"x_max":962,"o":"m 79 0 l 79 900 l 379 900 l 379 0 l 79 0 m 425 127 l 425 565 l 635 899 l 947 900 l 425 127 m 962 0 l 637 0 l 536 210 l 713 476 l 962 0 z "},"L":{"ha":859,"x_min":79,"x_max":847,"o":"m 79 0 l 79 900 l 379 900 l 379 0 l 79 0 m 427 0 l 427 180 l 575 180 l 575 294 l 847 294 l 847 0 l 427 0 z "},"M":{"ha":1253,"x_min":79,"x_max":1174,"o":"m 80 900 l 399 900 l 640 500 l 830 825 l 830 372 l 614 0 l 80 900 m 874 0 l 874 900 l 1174 900 l 1174 0 l 874 0 m 79 0 l 79 817 l 359 347 l 359 0 l 79 0 z "},"N":{"ha":1023,"x_min":79,"x_max":943,"o":"m 943 0 l 625 0 l 79 900 l 396 900 l 943 0 m 79 0 l 79 814 l 340 387 l 340 0 l 79 0 m 943 900 l 943 85 l 682 515 l 682 900 l 943 900 z "},"O":{"ha":992,"x_min":58,"x_max":933,"o":"m 359 183 l 471 183 l 471 0 l 241 0 l 58 180 l 58 720 l 241 900 l 471 900 l 471 718 l 359 718 l 359 183 m 633 718 l 519 718 l 519 900 l 751 900 l 933 720 l 933 180 l 751 0 l 519 0 l 519 183 l 633 183 l 633 718 z "},"P":{"ha":989,"x_min":78,"x_max":936,"o":"m 78 0 l 78 900 l 372 900 l 372 0 l 78 0 m 420 720 l 420 900 l 756 900 l 936 720 l 936 412 l 756 231 l 420 231 l 420 412 l 637 412 l 637 720 l 420 720 z "},"Q":{"ha":1002,"x_min":65,"x_max":935,"o":"m 470 0 l 245 0 l 65 180 l 65 720 l 245 900 l 477 900 l 477 720 l 365 720 l 365 180 l 602 180 l 895 -96 l 734 -252 l 470 0 m 935 180 l 806 49 l 635 206 l 635 720 l 523 720 l 523 900 l 755 900 l 935 720 l 935 180 z "},"R":{"ha":1008,"x_min":79,"x_max":980,"o":"m 79 0 l 79 900 l 379 900 l 379 0 l 79 0 m 427 720 l 427 900 l 769 900 l 949 720 l 949 450 l 811 312 l 802 331 l 520 294 l 531 270 l 427 270 l 427 444 l 652 444 l 652 720 l 427 720 m 980 0 l 660 0 l 531 270 l 769 270 l 811 312 l 980 0 z "},"S":{"ha":1002,"x_min":66,"x_max":936,"o":"m 635 0 l 635 337 l 246 337 l 66 517 l 66 720 l 246 900 l 348 900 l 348 581 l 762 581 l 936 400 l 936 180 l 756 0 l 635 0 m 395 738 l 395 900 l 755 900 l 911 743 l 911 648 l 635 648 l 635 738 l 395 738 m 66 270 l 366 270 l 366 163 l 588 163 l 588 0 l 217 0 l 66 180 l 66 270 z "},"T":{"ha":852,"x_min":35,"x_max":817,"o":"m 270 657 l 582 657 l 582 0 l 270 0 l 270 657 m 35 900 l 817 900 l 817 704 l 35 704 l 35 900 z "},"U":{"ha":1014,"x_min":72,"x_max":941,"o":"m 941 180 l 762 0 l 530 0 l 530 180 l 642 180 l 642 900 l 941 900 l 941 180 m 372 180 l 483 180 l 483 0 l 252 0 l 72 180 l 72 900 l 372 900 l 372 180 z "},"V":{"ha":930,"x_min":-18,"x_max":947,"o":"m 600 0 l 308 0 l -18 900 l 288 900 l 600 0 m 646 900 l 947 900 l 636 27 l 501 423 l 646 900 z "},"W":{"ha":1308,"x_min":-18,"x_max":1325,"o":"m 413 406 l 503 783 l 621 356 l 524 0 l 252 0 l -18 900 l 281 900 l 413 406 m 1049 0 l 763 0 l 516 900 l 819 900 l 1049 0 m 1052 900 l 1325 900 l 1081 47 l 959 526 l 1052 900 z "},"X":{"ha":910,"x_min":-18,"x_max":928,"o":"m 648 493 l 488 727 l 593 900 l 915 900 l 648 493 m -18 0 l 269 419 l 430 175 l 325 0 l -18 0 m 928 0 l 601 0 l 1 900 l 324 900 l 928 0 z "},"Y":{"ha":880,"x_min":-18,"x_max":897,"o":"m 288 286 l -18 900 l 277 900 l 588 265 l 588 0 l 288 0 l 288 286 m 607 328 l 461 624 l 609 900 l 897 900 l 607 328 z "},"Z":{"ha":862,"x_min":35,"x_max":827,"o":"m 35 168 l 623 900 l 827 900 l 827 726 l 233 0 l 35 0 l 35 168 m 814 0 l 293 0 l 464 197 l 814 197 l 814 0 m 54 900 l 564 900 l 394 703 l 54 703 l 54 900 z "},"[":{"ha":663,"x_min":186,"x_max":567,"o":"m 456 84 l 567 84 l 567 -96 l 186 -96 l 186 996 l 567 996 l 567 817 l 456 817 l 456 84 z "},"\\":{"ha":506,"x_min":-23,"x_max":562,"o":"m 146 962 l -23 962 l 393 -133 l 562 -133 l 146 962 z "},"]":{"ha":663,"x_min":96,"x_max":477,"o":"m 208 84 l 96 84 l 96 -96 l 477 -96 l 477 996 l 96 996 l 96 817 l 208 817 l 208 84 z "},"^":{"ha":875,"x_min":118,"x_max":757,"o":"m 362 791 l 522 791 l 757 68 l 576 68 l 362 791 m 323 755 l 406 462 l 298 68 l 118 68 l 323 755 z "},"_":{"ha":903,"x_min":-58,"x_max":961,"o":"m -58 -136 l 961 -136 l 961 -267 l -58 -267 l -58 -136 z "},"`":{"ha":745,"x_min":82,"x_max":536,"o":"m 536 876 l 495 776 l 119 889 l 82 1032 l 207 1090 l 536 876 z "},"a":{"ha":903,"x_min":58,"x_max":838,"o":"m 545 0 l 545 541 l 119 541 l 119 630 l 209 720 l 659 720 l 838 541 l 838 0 l 545 0 m 498 419 l 498 294 l 343 294 l 343 168 l 498 168 l 498 89 l 408 0 l 179 0 l 58 119 l 58 299 l 179 419 l 498 419 z "},"b":{"ha":909,"x_min":71,"x_max":850,"o":"m 370 995 l 370 0 l 71 0 l 71 995 l 370 995 m 552 541 l 418 541 l 418 631 l 506 720 l 670 720 l 850 541 l 850 180 l 670 0 l 418 0 l 418 168 l 552 168 l 552 541 z "},"c":{"ha":897,"x_min":64,"x_max":844,"o":"m 364 0 l 244 0 l 64 180 l 64 541 l 244 720 l 364 720 l 364 0 m 412 541 l 412 720 l 665 720 l 844 541 l 844 433 l 545 433 l 545 541 l 412 541 m 412 0 l 412 168 l 545 168 l 545 258 l 844 258 l 844 180 l 665 0 l 412 0 z "},"d":{"ha":926,"x_min":64,"x_max":856,"o":"m 856 995 l 856 0 l 556 0 l 556 995 l 856 995 m 364 168 l 509 168 l 509 71 l 437 0 l 227 0 l 64 162 l 64 558 l 227 720 l 509 720 l 509 541 l 364 541 l 364 168 z "},"e":{"ha":903,"x_min":64,"x_max":846,"o":"m 364 0 l 244 0 l 64 180 l 64 541 l 244 720 l 364 720 l 364 0 m 412 289 l 412 414 l 570 414 l 570 541 l 412 541 l 412 720 l 666 720 l 846 541 l 846 289 l 412 289 m 412 0 l 412 168 l 814 168 l 814 90 l 725 0 l 412 0 z "},"f":{"ha":615,"x_min":26,"x_max":614,"o":"m 397 815 l 397 0 l 97 0 l 97 541 l 26 541 l 26 720 l 97 720 l 97 827 l 278 995 l 614 995 l 614 815 l 397 815 m 443 541 l 445 720 l 614 720 l 614 541 l 443 541 z "},"g":{"ha":909,"x_min":64,"x_max":844,"o":"m 545 541 l 412 541 l 412 720 l 665 720 l 844 541 l 844 -71 l 665 -252 l 269 -252 l 179 -161 l 179 -95 l 545 -95 l 545 541 m 497 168 l 497 89 l 408 0 l 244 0 l 64 180 l 64 541 l 244 720 l 364 720 l 364 168 l 497 168 z "},"h":{"ha":915,"x_min":71,"x_max":850,"o":"m 71 995 l 370 995 l 370 0 l 71 0 l 71 995 m 550 541 l 418 541 l 418 631 l 506 720 l 670 720 l 850 541 l 850 0 l 550 0 l 550 541 z "},"i":{"ha":443,"x_min":71,"x_max":372,"o":"m 71 720 l 372 720 l 372 0 l 71 0 l 71 720 m 71 1001 l 372 1001 l 372 810 l 71 810 l 71 1001 z "},"j":{"ha":443,"x_min":-68,"x_max":372,"o":"m -68 -60 l 71 -60 l 71 720 l 372 720 l 372 -60 l 191 -240 l -68 -240 l -68 -60 m 71 1001 l 371 1001 l 371 810 l 71 810 l 71 1001 z "},"k":{"ha":890,"x_min":71,"x_max":881,"o":"m 370 0 l 71 0 l 71 995 l 370 995 l 370 0 m 417 102 l 417 513 l 555 719 l 865 720 l 417 102 m 881 0 l 555 0 l 506 145 l 683 384 l 881 0 z "},"l":{"ha":511,"x_min":71,"x_max":505,"o":"m 505 0 l 239 0 l 71 168 l 71 995 l 370 995 l 370 180 l 505 180 l 505 0 z "},"m":{"ha":1385,"x_min":81,"x_max":1320,"o":"m 81 0 l 81 720 l 381 720 l 381 0 l 81 0 m 551 541 l 429 541 l 429 625 l 523 720 l 755 720 l 851 624 l 851 0 l 551 0 l 551 541 m 1021 541 l 899 541 l 899 624 l 991 720 l 1174 720 l 1320 572 l 1320 0 l 1021 0 l 1021 541 z "},"n":{"ha":920,"x_min":71,"x_max":851,"o":"m 71 0 l 71 720 l 373 720 l 373 0 l 71 0 m 551 541 l 422 541 l 422 619 l 522 720 l 689 720 l 851 558 l 851 0 l 551 0 l 551 541 z "},"o":{"ha":938,"x_min":64,"x_max":873,"o":"m 873 180 l 694 0 l 493 0 l 493 168 l 568 168 l 568 541 l 493 541 l 493 720 l 694 720 l 873 541 l 873 180 m 368 168 l 446 168 l 446 0 l 244 0 l 64 180 l 64 541 l 244 720 l 446 720 l 446 541 l 368 541 l 368 168 z "},"p":{"ha":915,"x_min":71,"x_max":850,"o":"m 71 -240 l 71 720 l 370 720 l 370 -240 l 71 -240 m 550 541 l 418 541 l 418 631 l 506 720 l 670 720 l 850 541 l 850 180 l 670 0 l 418 0 l 418 168 l 550 168 l 550 541 z "},"q":{"ha":916,"x_min":64,"x_max":845,"o":"m 633 -240 l 545 -150 l 545 541 l 412 541 l 412 720 l 665 720 l 845 541 l 845 -240 l 633 -240 m 364 168 l 498 168 l 498 89 l 408 0 l 245 0 l 64 180 l 64 541 l 245 720 l 364 720 l 364 168 z "},"r":{"ha":868,"x_min":71,"x_max":846,"o":"m 546 541 l 418 541 l 418 619 l 519 720 l 701 720 l 846 552 l 846 366 l 546 366 l 546 541 m 71 0 l 71 720 l 370 720 l 370 0 l 71 0 z "},"s":{"ha":892,"x_min":64,"x_max":845,"o":"m 227 720 l 347 720 l 347 466 l 689 466 l 845 309 l 845 168 l 677 0 l 545 0 l 545 272 l 221 272 l 65 422 l 65 559 l 227 720 m 365 132 l 498 132 l 498 0 l 189 1 l 64 149 l 64 206 l 365 206 l 365 132 m 545 588 l 395 588 l 395 720 l 713 720 l 821 613 l 821 532 l 545 532 l 545 588 z "},"t":{"ha":621,"x_min":19,"x_max":587,"o":"m 378 180 l 576 180 l 576 0 l 259 0 l 79 180 l 79 541 l 19 541 l 19 720 l 79 720 l 79 798 l 378 900 l 378 180 m 426 541 l 426 720 l 587 720 l 587 541 l 426 541 z "},"u":{"ha":916,"x_min":64,"x_max":845,"o":"m 845 720 l 845 0 l 545 0 l 545 720 l 845 720 m 364 180 l 498 180 l 498 90 l 411 0 l 245 0 l 64 180 l 64 720 l 364 720 l 364 180 z "},"v":{"ha":808,"x_min":-9,"x_max":818,"o":"m -9 720 l 288 720 l 545 0 l 260 0 l -9 720 m 575 40 l 441 421 l 538 720 l 818 720 l 575 40 z "},"w":{"ha":1252,"x_min":-9,"x_max":1261,"o":"m -9 720 l 277 720 l 394 345 l 477 605 l 585 273 l 500 -1 l 499 0 l 249 0 l -9 720 m 481 720 l 764 720 l 996 0 l 724 0 l 481 720 m 1026 45 l 900 433 l 981 720 l 1261 720 l 1026 45 z "},"x":{"ha":773,"x_min":-9,"x_max":782,"o":"m 302 720 l 782 0 l 471 0 l -9 720 l 302 720 m 420 621 l 471 720 l 782 720 l 574 388 l 420 621 m 302 0 l -9 0 l 191 343 l 351 101 l 302 0 z "},"y":{"ha":828,"x_min":-9,"x_max":838,"o":"m 472 -251 l 184 -251 l 549 720 l 838 720 l 472 -251 m -9 720 l 290 720 l 391 427 l 256 60 l -9 720 z "},"z":{"ha":801,"x_min":64,"x_max":740,"o":"m 740 0 l 321 0 l 480 180 l 740 180 l 740 0 m 71 720 l 476 720 l 321 541 l 71 541 l 71 720 m 64 174 l 532 720 l 739 720 l 739 541 l 265 0 l 64 0 l 64 174 z "},"{":{"ha":663,"x_min":59,"x_max":562,"o":"m 450 554 l 353 464 l 450 346 l 450 84 l 562 84 l 562 -96 l 336 -96 l 156 84 l 156 346 l 59 450 l 156 554 l 156 817 l 336 996 l 562 996 l 562 817 l 450 817 l 450 554 z "},"|":{"ha":475,"x_min":156,"x_max":319,"o":"m 156 -133 l 156 962 l 319 962 l 319 -133 l 156 -133 z "},"}":{"ha":663,"x_min":101,"x_max":604,"o":"m 212 554 l 310 464 l 212 346 l 212 84 l 101 84 l 101 -96 l 327 -96 l 507 84 l 507 346 l 604 450 l 507 554 l 507 817 l 327 996 l 101 996 l 101 817 l 212 817 l 212 554 z "},"~":{"ha":1011,"x_min":77,"x_max":941,"o":"m 782 228 l 509 228 l 351 386 l 277 386 l 136 288 l 77 348 l 237 547 l 509 547 l 670 386 l 740 386 l 881 487 l 941 426 l 782 228 z "}," ":{"ha":359,"x_min":0,"x_max":0,"o":""},"¡":{"ha":511,"x_min":96,"x_max":415,"o":"m 115 530 l 397 530 l 415 -71 l 96 -71 l 115 530 m 406 620 l 106 620 l 106 829 l 406 829 l 406 620 z "},"¢":{"ha":1092,"x_min":156,"x_max":936,"o":"m 410 90 l 336 90 l 156 270 l 156 630 l 336 810 l 456 810 l 456 270 l 590 270 l 590 -12 l 410 -12 l 410 90 m 502 630 l 502 911 l 682 911 l 682 810 l 756 810 l 936 630 l 936 541 l 635 541 l 635 630 l 502 630 m 635 90 l 635 359 l 936 359 l 936 270 l 756 90 l 635 90 z "},"£":{"ha":1182,"x_min":156,"x_max":1026,"o":"m 576 480 l 784 480 l 784 353 l 576 353 l 576 0 l 156 0 l 156 180 l 276 179 l 276 180 l 276 353 l 156 353 l 156 480 l 276 480 l 276 781 l 456 960 l 576 960 l 576 480 m 622 781 l 622 960 l 840 960 l 1020 781 l 1020 692 l 749 692 l 749 781 l 622 781 m 622 0 l 622 180 l 1026 179 l 1026 0 l 622 0 z "},"¤":{"ha":991,"x_min":75,"x_max":916,"o":"m 329 481 l 165 481 l 165 584 l 223 641 l 75 792 l 153 871 l 304 722 l 368 786 l 472 786 l 472 614 l 329 614 l 329 481 m 838 481 l 674 481 l 674 614 l 528 614 l 528 786 l 635 786 l 692 727 l 838 871 l 916 792 l 773 647 l 838 584 l 838 481 m 223 259 l 165 316 l 165 426 l 329 426 l 329 283 l 472 283 l 472 114 l 368 114 l 304 178 l 153 28 l 75 106 l 223 259 m 692 173 l 635 114 l 528 114 l 528 283 l 674 283 l 674 426 l 838 426 l 838 316 l 773 253 l 916 106 l 838 28 l 692 173 z "},"¥":{"ha":1179,"x_min":132,"x_max":1047,"o":"m 252 377 l 417 377 l 132 900 l 420 900 l 707 377 l 924 377 l 924 287 l 738 287 l 738 213 l 924 213 l 924 123 l 738 123 l 738 0 l 437 0 l 437 123 l 252 123 l 252 213 l 437 213 l 437 287 l 252 287 l 252 377 m 779 418 l 740 418 l 607 654 l 759 900 l 1047 900 l 779 418 z "},"¦":{"ha":473,"x_min":156,"x_max":317,"o":"m 156 473 l 156 962 l 317 962 l 317 473 l 156 473 m 156 -133 l 156 347 l 317 347 l 317 -133 l 156 -133 z "},"§":{"ha":1067,"x_min":123,"x_max":944,"o":"m 648 366 l 648 608 l 251 608 l 123 736 l 123 882 l 252 1010 l 509 1010 l 509 882 l 419 882 l 419 736 l 798 736 l 928 608 l 928 366 l 648 366 m 815 321 l 944 192 l 944 46 l 816 -82 l 558 -82 l 558 46 l 648 46 l 648 192 l 277 192 l 146 321 l 146 562 l 419 562 l 419 321 l 815 321 m 557 1010 l 815 1010 l 944 882 l 944 805 l 648 805 l 648 882 l 557 882 l 557 1010 m 510 -82 l 252 -82 l 123 46 l 123 123 l 420 123 l 420 46 l 510 46 l 510 -82 z "},"¨":{"ha":959,"x_min":186,"x_max":773,"o":"m 186 1058 l 414 1058 l 414 867 l 186 867 l 186 1058 m 545 1058 l 773 1058 l 773 867 l 545 867 l 545 1058 z "},"©":{"ha":1076,"x_min":64,"x_max":1011,"o":"m 557 720 l 557 869 l 802 869 l 1011 660 l 1011 180 l 802 -29 l 569 -29 l 569 120 l 709 120 l 838 250 l 838 359 l 610 359 l 610 270 l 466 270 l 466 570 l 610 570 l 610 480 l 838 480 l 838 588 l 709 720 l 557 720 m 64 180 l 64 660 l 274 869 l 521 869 l 521 720 l 370 720 l 238 588 l 238 251 l 368 120 l 533 120 l 533 -29 l 274 -29 l 64 180 z "},"ª":{"ha":777,"x_min":96,"x_max":680,"o":"m 454 359 l 454 765 l 140 765 l 140 833 l 208 900 l 545 900 l 680 765 l 680 359 l 454 359 m 409 679 l 409 581 l 321 581 l 321 494 l 409 494 l 409 426 l 342 359 l 186 359 l 96 449 l 96 589 l 186 679 l 409 679 m 328 245 l 448 245 l 537 155 l 537 35 l 448 -55 l 328 -55 l 237 35 l 237 155 l 328 245 z "},"«":{"ha":1168,"x_min":137,"x_max":1030,"o":"m 566 416 l 850 709 l 1030 709 l 840 363 l 1030 18 l 850 18 l 566 311 l 566 416 m 137 416 l 422 709 l 602 709 l 411 363 l 602 18 l 422 18 l 137 311 l 137 416 z "},"¬":{"ha":1101,"x_min":126,"x_max":975,"o":"m 126 657 l 975 657 l 975 183 l 812 183 l 812 496 l 126 496 l 126 657 z "},"­":{"ha":730,"x_min":66,"x_max":666,"o":"m 66 510 l 666 510 l 666 330 l 66 330 l 66 510 z "},"®":{"ha":1076,"x_min":64,"x_max":1011,"o":"m 736 -29 l 736 120 l 859 120 l 748 328 l 839 419 l 839 600 l 719 720 l 556 720 l 556 869 l 802 869 l 1011 660 l 1011 180 l 802 -29 l 736 -29 m 274 -29 l 64 180 l 64 660 l 274 869 l 519 869 l 519 720 l 235 720 l 235 120 l 340 120 l 340 -29 l 274 -29 m 614 120 l 700 120 l 700 -29 l 376 -29 l 376 120 l 472 120 l 472 300 l 524 300 l 614 120 m 472 576 l 604 576 l 604 444 l 472 444 l 472 576 z "},"¯":{"ha":840,"x_min":170,"x_max":665,"o":"m 170 945 l 665 945 l 665 829 l 170 829 l 170 945 z "},"°":{"ha":795,"x_min":94,"x_max":702,"o":"m 420 326 l 420 487 l 520 487 l 520 733 l 420 733 l 420 900 l 537 900 l 702 735 l 702 491 l 537 326 l 420 326 m 375 487 l 375 326 l 258 326 l 94 491 l 94 735 l 258 900 l 375 900 l 375 733 l 275 733 l 275 487 l 375 487 z "},"±":{"ha":976,"x_min":126,"x_max":850,"o":"m 126 617 l 408 617 l 408 773 l 571 773 l 571 617 l 850 617 l 850 454 l 571 454 l 571 300 l 408 300 l 408 454 l 126 454 l 126 617 m 126 212 l 850 212 l 850 50 l 126 50 l 126 212 z "},"²":{"ha":734,"x_min":66,"x_max":686,"o":"m 288 270 l 66 270 l 66 500 l 192 627 l 452 627 l 452 900 l 536 900 l 674 774 l 674 627 l 549 500 l 288 500 l 288 270 m 192 900 l 405 900 l 405 774 l 276 774 l 276 710 l 66 710 l 66 774 l 192 900 m 329 270 l 329 396 l 686 396 l 686 270 l 329 270 z "},"³":{"ha":730,"x_min":54,"x_max":663,"o":"m 451 270 l 451 524 l 243 524 l 243 648 l 451 648 l 451 900 l 537 900 l 663 777 l 663 648 l 601 584 l 663 524 l 663 395 l 537 270 l 451 270 m 180 900 l 406 900 l 406 774 l 264 774 l 264 710 l 54 710 l 54 774 l 180 900 m 406 395 l 406 270 l 180 270 l 54 395 l 54 459 l 264 459 l 264 395 l 406 395 z "},"´":{"ha":745,"x_min":186,"x_max":640,"o":"m 515 1090 l 640 1032 l 604 889 l 228 776 l 186 876 l 515 1090 z "},"µ":{"ha":958,"x_min":82,"x_max":934,"o":"m 292 720 l 292 -240 l 82 -240 l 82 720 l 292 720 m 338 161 l 606 161 l 606 720 l 821 720 l 821 161 l 934 161 l 934 0 l 804 0 l 713 90 l 623 0 l 425 0 l 338 90 l 338 161 z "},"¶":{"ha":1092,"x_min":119,"x_max":966,"o":"m 622 301 l 622 120 l 300 120 l 119 301 l 119 720 l 300 900 l 622 900 l 622 720 l 532 720 l 532 301 l 622 301 m 966 50 l 786 -130 l 667 -130 l 667 900 l 966 900 l 966 50 z "},"·":{"ha":492,"x_min":96,"x_max":395,"o":"m 185 614 l 305 614 l 395 524 l 395 404 l 305 315 l 185 315 l 96 404 l 96 524 l 185 614 z "},"¸":{"ha":684,"x_min":193,"x_max":524,"o":"m 387 -153 l 387 -42 l 524 -42 l 524 -208 l 405 -344 l 193 -344 l 193 -153 l 387 -153 z "},"¹":{"ha":612,"x_min":96,"x_max":528,"o":"m 422 441 l 201 441 l 201 774 l 96 774 l 96 900 l 422 900 l 422 441 m 96 396 l 528 396 l 528 270 l 96 270 l 96 396 z "},"º":{"ha":779,"x_min":96,"x_max":683,"o":"m 683 496 l 547 359 l 412 359 l 412 496 l 457 496 l 457 766 l 412 766 l 412 901 l 547 901 l 683 766 l 683 496 m 321 496 l 366 496 l 366 359 l 231 359 l 96 496 l 96 766 l 231 901 l 366 901 l 366 766 l 321 766 l 321 496 m 330 245 l 450 245 l 540 155 l 540 35 l 450 -55 l 330 -55 l 239 35 l 239 155 l 330 245 z "},"»":{"ha":1166,"x_min":138,"x_max":1029,"o":"m 602 311 l 317 18 l 138 18 l 328 363 l 138 708 l 317 708 l 602 415 l 602 311 m 1029 311 l 745 18 l 565 18 l 755 363 l 565 708 l 745 708 l 1029 415 l 1029 311 z "},"¼":{"ha":1626,"x_min":126,"x_max":1553,"o":"m 860 900 l 1028 900 l 703 0 l 535 0 l 860 900 m 440 441 l 231 441 l 231 774 l 126 774 l 126 900 l 440 900 l 440 441 m 126 396 l 546 396 l 546 270 l 126 270 l 126 396 m 1455 210 l 1553 210 l 1553 94 l 1455 94 l 1455 0 l 1245 0 l 1245 630 l 1455 630 l 1455 210 m 891 210 l 1200 569 l 1200 319 l 1093 210 l 1200 210 l 1200 94 l 891 94 l 891 210 z "},"½":{"ha":1729,"x_min":126,"x_max":1628,"o":"m 859 900 l 1028 900 l 703 0 l 534 0 l 859 900 m 440 441 l 231 441 l 231 774 l 126 774 l 126 900 l 440 900 l 440 441 m 126 396 l 546 396 l 546 270 l 126 270 l 126 396 m 1230 10 l 1008 10 l 1008 241 l 1134 367 l 1394 367 l 1394 640 l 1478 640 l 1616 514 l 1616 367 l 1491 241 l 1230 241 l 1230 10 m 1134 640 l 1347 640 l 1347 514 l 1218 514 l 1218 450 l 1008 450 l 1008 514 l 1134 640 m 1271 10 l 1271 136 l 1628 136 l 1628 10 l 1271 10 z "},"¾":{"ha":1708,"x_min":54,"x_max":1652,"o":"m 946 900 l 1116 900 l 791 0 l 621 0 l 946 900 m 1554 210 l 1652 210 l 1652 94 l 1554 94 l 1554 0 l 1344 0 l 1344 630 l 1554 630 l 1554 210 m 990 210 l 1299 569 l 1299 319 l 1192 210 l 1299 210 l 1299 94 l 990 94 l 990 210 m 451 270 l 451 524 l 243 524 l 243 648 l 451 648 l 451 900 l 537 900 l 663 777 l 663 648 l 601 584 l 663 524 l 663 395 l 537 270 l 451 270 m 180 900 l 406 900 l 406 774 l 264 774 l 264 710 l 54 710 l 54 774 l 180 900 m 406 395 l 406 270 l 180 270 l 54 395 l 54 459 l 264 459 l 264 395 l 406 395 z "},"¿":{"ha":954,"x_min":54,"x_max":900,"o":"m 233 -71 l 54 109 l 54 265 l 233 446 l 362 446 l 362 530 l 663 530 l 663 446 l 483 265 l 353 265 l 353 109 l 600 109 l 600 199 l 900 199 l 900 111 l 720 -71 l 233 -71 m 663 620 l 362 620 l 362 829 l 663 829 l 663 620 z "},"À":{"ha":1017,"x_min":6,"x_max":1011,"o":"m 670 98 l 376 98 l 438 277 l 601 277 l 360 900 l 652 900 l 1011 0 l 708 0 l 670 98 m 296 0 l 6 0 l 328 859 l 460 502 l 296 0 m 614 1036 l 579 953 l 239 1031 l 207 1145 l 312 1198 l 614 1036 z "},"Á":{"ha":1017,"x_min":6,"x_max":1011,"o":"m 670 98 l 376 98 l 438 277 l 601 277 l 360 900 l 652 900 l 1011 0 l 708 0 l 670 98 m 296 0 l 6 0 l 328 859 l 460 502 l 296 0 m 700 1198 l 805 1145 l 773 1031 l 432 953 l 397 1036 l 700 1198 z "},"Â":{"ha":1017,"x_min":6,"x_max":1011,"o":"m 670 98 l 376 98 l 438 277 l 601 277 l 360 900 l 652 900 l 1011 0 l 708 0 l 670 98 m 296 0 l 6 0 l 328 859 l 460 502 l 296 0 m 420 1175 l 591 1175 l 763 998 l 711 945 l 506 1053 l 298 945 l 246 999 l 420 1175 z "},"Ã":{"ha":1017,"x_min":6,"x_max":1011,"o":"m 670 98 l 376 98 l 438 277 l 601 277 l 360 900 l 652 900 l 1011 0 l 708 0 l 670 98 m 296 0 l 6 0 l 328 859 l 460 502 l 296 0 m 631 1092 l 754 1164 l 798 1112 l 657 966 l 518 966 l 410 1045 l 382 1045 l 259 973 l 216 1026 l 356 1171 l 495 1171 l 604 1092 l 631 1092 z "},"Ä":{"ha":1017,"x_min":6,"x_max":1011,"o":"m 670 98 l 376 98 l 438 277 l 601 277 l 360 900 l 652 900 l 1011 0 l 708 0 l 670 98 m 296 0 l 6 0 l 328 859 l 460 502 l 296 0 m 212 1141 l 440 1141 l 440 991 l 212 991 l 212 1141 m 572 1141 l 800 1141 l 800 991 l 572 991 l 572 1141 z "},"Å":{"ha":1017,"x_min":6,"x_max":1011,"o":"m 582 940 l 582 1093 l 530 1093 l 530 1198 l 607 1198 l 701 1105 l 701 950 l 650 900 l 652 900 l 1011 0 l 708 0 l 677 79 l 369 79 l 431 258 l 608 258 l 360 900 l 361 900 l 311 950 l 311 1105 l 404 1198 l 482 1198 l 482 1093 l 431 1093 l 431 940 l 582 940 m 296 0 l 6 0 l 328 859 l 460 502 l 296 0 z "},"Æ":{"ha":1563,"x_min":6,"x_max":1523,"o":"m 983 359 l 983 0 l 683 0 l 683 900 l 983 900 l 983 541 l 1282 541 l 1282 359 l 983 359 m 637 143 l 380 143 l 315 0 l 6 0 l 435 900 l 637 900 l 637 713 l 460 321 l 637 321 l 637 143 m 1028 720 l 1028 900 l 1523 900 l 1523 630 l 1223 630 l 1223 720 l 1028 720 m 1028 0 l 1028 180 l 1223 180 l 1223 270 l 1523 270 l 1523 0 l 1028 0 z "},"Ç":{"ha":977,"x_min":66,"x_max":912,"o":"m 366 0 l 246 0 l 66 180 l 66 720 l 246 900 l 366 900 l 366 0 m 413 720 l 413 900 l 732 900 l 912 720 l 912 539 l 612 539 l 612 720 l 413 720 m 413 0 l 413 180 l 612 180 l 612 311 l 912 311 l 912 180 l 732 0 l 413 0 m 490 -153 l 490 -42 l 627 -42 l 627 -208 l 508 -344 l 296 -344 l 296 -153 l 490 -153 z "},"È":{"ha":960,"x_min":79,"x_max":895,"o":"m 379 370 l 379 0 l 79 0 l 79 900 l 379 900 l 379 543 l 666 543 l 666 370 l 379 370 m 427 726 l 427 900 l 895 900 l 895 640 l 613 640 l 613 726 l 427 726 m 427 0 l 427 180 l 595 180 l 595 270 l 895 270 l 895 0 l 427 0 m 607 1036 l 572 953 l 231 1031 l 199 1145 l 304 1198 l 607 1036 z "},"É":{"ha":960,"x_min":79,"x_max":895,"o":"m 379 370 l 379 0 l 79 0 l 79 900 l 379 900 l 379 543 l 666 543 l 666 370 l 379 370 m 427 726 l 427 900 l 895 900 l 895 640 l 613 640 l 613 726 l 427 726 m 427 0 l 427 180 l 595 180 l 595 270 l 895 270 l 895 0 l 427 0 m 692 1198 l 798 1145 l 766 1031 l 425 953 l 390 1036 l 692 1198 z "},"Ê":{"ha":960,"x_min":79,"x_max":895,"o":"m 379 370 l 379 0 l 79 0 l 79 900 l 379 900 l 379 543 l 666 543 l 666 370 l 379 370 m 427 726 l 427 900 l 895 900 l 895 640 l 613 640 l 613 726 l 427 726 m 427 0 l 427 180 l 595 180 l 595 270 l 895 270 l 895 0 l 427 0 m 412 1175 l 583 1175 l 755 998 l 704 945 l 498 1053 l 291 945 l 239 999 l 412 1175 z "},"Ë":{"ha":960,"x_min":79,"x_max":895,"o":"m 379 370 l 379 0 l 79 0 l 79 900 l 379 900 l 379 543 l 666 543 l 666 370 l 379 370 m 427 726 l 427 900 l 895 900 l 895 640 l 613 640 l 613 726 l 427 726 m 427 0 l 427 180 l 595 180 l 595 270 l 895 270 l 895 0 l 427 0 m 205 1141 l 433 1141 l 433 991 l 205 991 l 205 1141 m 564 1141 l 792 1141 l 792 991 l 564 991 l 564 1141 z "},"Ì":{"ha":612,"x_min":7,"x_max":546,"o":"m 66 192 l 156 192 l 156 709 l 66 709 l 66 900 l 546 900 l 546 709 l 456 709 l 456 192 l 546 192 l 546 0 l 66 0 l 66 192 m 415 1035 l 380 952 l 39 1030 l 7 1145 l 113 1198 l 415 1035 z "},"Í":{"ha":612,"x_min":66,"x_max":605,"o":"m 66 192 l 156 192 l 156 709 l 66 709 l 66 900 l 546 900 l 546 709 l 456 709 l 456 192 l 546 192 l 546 0 l 66 0 l 66 192 m 500 1198 l 605 1145 l 573 1030 l 232 952 l 197 1035 l 500 1198 z "},"Î":{"ha":612,"x_min":47,"x_max":564,"o":"m 66 192 l 156 192 l 156 709 l 66 709 l 66 900 l 546 900 l 546 709 l 456 709 l 456 192 l 546 192 l 546 0 l 66 0 l 66 192 m 220 1174 l 391 1174 l 564 998 l 512 944 l 307 1052 l 99 944 l 47 998 l 220 1174 z "},"Ï":{"ha":612,"x_min":13,"x_max":600,"o":"m 66 192 l 156 192 l 156 709 l 66 709 l 66 900 l 546 900 l 546 709 l 456 709 l 456 192 l 546 192 l 546 0 l 66 0 l 66 192 m 13 1140 l 241 1140 l 241 990 l 13 990 l 13 1140 m 372 1140 l 600 1140 l 600 990 l 372 990 l 372 1140 z "},"Ð":{"ha":1015,"x_min":20,"x_max":949,"o":"m 427 0 l 427 180 l 649 180 l 649 720 l 427 720 l 427 900 l 769 900 l 949 720 l 949 180 l 769 0 l 427 0 m 20 513 l 79 513 l 79 900 l 379 900 l 379 513 l 525 513 l 525 387 l 379 387 l 379 0 l 79 0 l 79 387 l 20 387 l 20 513 z "},"Ñ":{"ha":1023,"x_min":79,"x_max":943,"o":"m 943 0 l 625 0 l 79 900 l 396 900 l 943 0 m 79 0 l 79 814 l 340 387 l 340 0 l 79 0 m 943 900 l 943 85 l 682 515 l 682 900 l 943 900 m 630 1091 l 753 1164 l 796 1111 l 656 966 l 517 966 l 408 1044 l 380 1044 l 258 972 l 214 1025 l 355 1171 l 494 1171 l 602 1091 l 630 1091 z "},"Ò":{"ha":992,"x_min":58,"x_max":933,"o":"m 359 183 l 471 183 l 471 0 l 241 0 l 58 180 l 58 720 l 241 900 l 471 900 l 471 718 l 359 718 l 359 183 m 633 718 l 519 718 l 519 900 l 751 900 l 933 720 l 933 180 l 751 0 l 519 0 l 519 183 l 633 183 l 633 718 m 604 1036 l 569 953 l 229 1031 l 197 1145 l 302 1198 l 604 1036 z "},"Ó":{"ha":992,"x_min":58,"x_max":933,"o":"m 359 183 l 471 183 l 471 0 l 241 0 l 58 180 l 58 720 l 241 900 l 471 900 l 471 718 l 359 718 l 359 183 m 633 718 l 519 718 l 519 900 l 751 900 l 933 720 l 933 180 l 751 0 l 519 0 l 519 183 l 633 183 l 633 718 m 690 1198 l 795 1145 l 763 1031 l 422 953 l 387 1036 l 690 1198 z "},"Ô":{"ha":992,"x_min":58,"x_max":933,"o":"m 359 183 l 471 183 l 471 0 l 241 0 l 58 180 l 58 720 l 241 900 l 471 900 l 471 718 l 359 718 l 359 183 m 633 718 l 519 718 l 519 900 l 751 900 l 933 720 l 933 180 l 751 0 l 519 0 l 519 183 l 633 183 l 633 718 m 410 1175 l 581 1175 l 753 998 l 701 945 l 496 1053 l 288 945 l 236 999 l 410 1175 z "},"Õ":{"ha":992,"x_min":58,"x_max":933,"o":"m 359 183 l 471 183 l 471 0 l 241 0 l 58 180 l 58 720 l 241 900 l 471 900 l 471 718 l 359 718 l 359 183 m 633 718 l 519 718 l 519 900 l 751 900 l 933 720 l 933 180 l 751 0 l 519 0 l 519 183 l 633 183 l 633 718 m 621 1092 l 744 1164 l 787 1112 l 647 966 l 508 966 l 399 1045 l 372 1045 l 249 973 l 205 1026 l 346 1171 l 485 1171 l 593 1092 l 621 1092 z "},"Ö":{"ha":992,"x_min":58,"x_max":933,"o":"m 359 183 l 471 183 l 471 0 l 241 0 l 58 180 l 58 720 l 241 900 l 471 900 l 471 718 l 359 718 l 359 183 m 633 718 l 519 718 l 519 900 l 751 900 l 933 720 l 933 180 l 751 0 l 519 0 l 519 183 l 633 183 l 633 718 m 202 1141 l 430 1141 l 430 991 l 202 991 l 202 1141 m 562 1141 l 789 1141 l 789 991 l 562 991 l 562 1141 z "},"×":{"ha":903,"x_min":127,"x_max":776,"o":"m 127 210 l 341 421 l 128 632 l 241 747 l 452 533 l 663 747 l 774 633 l 562 422 l 776 212 l 663 96 l 450 310 l 239 96 l 127 210 z "},"Ø":{"ha":987,"x_min":58,"x_max":928,"o":"m 163 75 l 58 180 l 58 720 l 239 900 l 552 900 l 503 720 l 359 720 l 359 180 l 437 180 l 362 -117 l 127 -60 l 163 75 m 928 180 l 749 0 l 438 0 l 485 179 l 629 180 l 629 720 l 552 720 l 626 1017 l 862 960 l 825 823 l 928 720 l 928 180 z "},"Ù":{"ha":1014,"x_min":72,"x_max":941,"o":"m 941 180 l 762 0 l 530 0 l 530 180 l 642 180 l 642 900 l 941 900 l 941 180 m 372 180 l 483 180 l 483 0 l 252 0 l 72 180 l 72 900 l 372 900 l 372 180 m 615 1035 l 580 952 l 239 1030 l 208 1145 l 313 1198 l 615 1035 z "},"Ú":{"ha":1014,"x_min":72,"x_max":941,"o":"m 941 180 l 762 0 l 530 0 l 530 180 l 642 180 l 642 900 l 941 900 l 941 180 m 372 180 l 483 180 l 483 0 l 252 0 l 72 180 l 72 900 l 372 900 l 372 180 m 701 1198 l 806 1145 l 774 1030 l 433 952 l 398 1035 l 701 1198 z "},"Û":{"ha":1014,"x_min":72,"x_max":941,"o":"m 941 180 l 762 0 l 530 0 l 530 180 l 642 180 l 642 900 l 941 900 l 941 180 m 372 180 l 483 180 l 483 0 l 252 0 l 72 180 l 72 900 l 372 900 l 372 180 m 420 1174 l 591 1174 l 764 998 l 712 944 l 507 1052 l 299 944 l 247 998 l 420 1174 z "},"Ü":{"ha":1014,"x_min":72,"x_max":941,"o":"m 941 180 l 762 0 l 530 0 l 530 180 l 642 180 l 642 900 l 941 900 l 941 180 m 372 180 l 483 180 l 483 0 l 252 0 l 72 180 l 72 900 l 372 900 l 372 180 m 213 1140 l 441 1140 l 441 990 l 213 990 l 213 1140 m 572 1140 l 800 1140 l 800 990 l 572 990 l 572 1140 z "},"Ý":{"ha":880,"x_min":-18,"x_max":897,"o":"m 288 286 l -18 900 l 277 900 l 588 265 l 588 0 l 288 0 l 288 286 m 607 328 l 461 624 l 609 900 l 897 900 l 607 328 m 633 1198 l 739 1145 l 707 1030 l 366 952 l 331 1035 l 633 1198 z "},"Þ":{"ha":993,"x_min":71,"x_max":928,"o":"m 71 0 l 71 900 l 364 900 l 364 0 l 71 0 m 412 592 l 412 772 l 748 772 l 928 592 l 928 321 l 748 142 l 412 142 l 412 321 l 634 321 l 634 592 l 412 592 z "},"ß":{"ha":979,"x_min":71,"x_max":926,"o":"m 452 0 l 452 180 l 627 180 l 627 471 l 471 471 l 471 616 l 573 616 l 573 816 l 416 816 l 416 995 l 689 995 l 839 846 l 839 612 l 791 566 l 926 428 l 926 172 l 754 0 l 452 0 m 71 0 l 71 816 l 250 995 l 370 995 l 370 0 l 71 0 z "},"à":{"ha":903,"x_min":58,"x_max":838,"o":"m 545 0 l 545 541 l 119 541 l 119 630 l 209 720 l 659 720 l 838 541 l 838 0 l 545 0 m 498 419 l 498 294 l 343 294 l 343 168 l 498 168 l 498 89 l 408 0 l 179 0 l 58 119 l 58 299 l 179 419 l 498 419 m 650 876 l 609 776 l 233 889 l 196 1032 l 321 1090 l 650 876 z "},"á":{"ha":903,"x_min":58,"x_max":838,"o":"m 545 0 l 545 541 l 119 541 l 119 630 l 209 720 l 659 720 l 838 541 l 838 0 l 545 0 m 498 419 l 498 294 l 343 294 l 343 168 l 498 168 l 498 89 l 408 0 l 179 0 l 58 119 l 58 299 l 179 419 l 498 419 m 588 1090 l 713 1032 l 676 889 l 300 776 l 258 876 l 588 1090 z "},"â":{"ha":903,"x_min":58,"x_max":838,"o":"m 545 0 l 545 541 l 119 541 l 119 630 l 209 720 l 659 720 l 838 541 l 838 0 l 545 0 m 498 419 l 498 294 l 343 294 l 343 168 l 498 168 l 498 89 l 408 0 l 179 0 l 58 119 l 58 299 l 179 419 l 498 419 m 755 848 l 692 782 l 452 924 l 212 782 l 149 848 l 349 1075 l 555 1075 l 755 848 z "},"ã":{"ha":903,"x_min":58,"x_max":838,"o":"m 545 0 l 545 541 l 119 541 l 119 630 l 209 720 l 659 720 l 838 541 l 838 0 l 545 0 m 498 419 l 498 294 l 343 294 l 343 168 l 498 168 l 498 89 l 408 0 l 179 0 l 58 119 l 58 299 l 179 419 l 498 419 m 479 1057 l 552 954 l 597 954 l 691 1032 l 750 973 l 618 828 l 426 828 l 353 930 l 307 930 l 214 852 l 155 911 l 287 1057 l 479 1057 z "},"ä":{"ha":903,"x_min":58,"x_max":838,"o":"m 545 0 l 545 541 l 119 541 l 119 630 l 209 720 l 659 720 l 838 541 l 838 0 l 545 0 m 498 419 l 498 294 l 343 294 l 343 168 l 498 168 l 498 89 l 408 0 l 179 0 l 58 119 l 58 299 l 179 419 l 498 419 m 157 1058 l 385 1058 l 385 867 l 157 867 l 157 1058 m 517 1058 l 745 1058 l 745 867 l 517 867 l 517 1058 z "},"å":{"ha":903,"x_min":58,"x_max":838,"o":"m 545 0 l 545 541 l 119 541 l 119 630 l 209 720 l 659 720 l 838 541 l 838 0 l 545 0 m 498 419 l 498 294 l 343 294 l 343 168 l 498 168 l 498 89 l 408 0 l 179 0 l 58 119 l 58 299 l 179 419 l 498 419 m 474 814 l 474 920 l 527 920 l 527 1036 l 474 1036 l 474 1141 l 540 1141 l 634 1048 l 634 907 l 540 814 l 474 814 m 427 920 l 427 814 l 360 814 l 267 907 l 267 1048 l 360 1141 l 427 1141 l 427 1036 l 375 1036 l 375 920 l 427 920 z "},"æ":{"ha":1377,"x_min":58,"x_max":1319,"o":"m 209 720 l 627 720 l 690 660 l 749 720 l 906 720 l 906 541 l 838 541 l 838 180 l 906 180 l 906 0 l 749 0 l 688 60 l 627 0 l 472 0 l 472 180 l 538 180 l 538 541 l 119 541 l 119 630 l 209 720 m 491 426 l 491 294 l 359 294 l 359 180 l 425 180 l 425 0 l 179 0 l 58 119 l 58 306 l 179 426 l 491 426 m 888 294 l 888 426 l 1019 426 l 1019 541 l 954 541 l 954 720 l 1139 720 l 1319 541 l 1319 294 l 888 294 m 954 0 l 954 180 l 1289 180 l 1289 90 l 1199 0 l 954 0 z "},"ç":{"ha":897,"x_min":64,"x_max":844,"o":"m 364 0 l 244 0 l 64 180 l 64 541 l 244 720 l 364 720 l 364 0 m 412 541 l 412 720 l 665 720 l 844 541 l 844 433 l 545 433 l 545 541 l 412 541 m 412 0 l 412 168 l 545 168 l 545 258 l 844 258 l 844 180 l 665 0 l 412 0 m 439 -153 l 439 -42 l 576 -42 l 576 -208 l 457 -344 l 245 -344 l 245 -153 l 439 -153 z "},"è":{"ha":903,"x_min":64,"x_max":846,"o":"m 364 0 l 244 0 l 64 180 l 64 541 l 244 720 l 364 720 l 364 0 m 412 289 l 412 414 l 570 414 l 570 541 l 412 541 l 412 720 l 666 720 l 846 541 l 846 289 l 412 289 m 412 0 l 412 168 l 814 168 l 814 90 l 725 0 l 412 0 m 652 876 l 610 776 l 234 889 l 197 1032 l 322 1090 l 652 876 z "},"é":{"ha":903,"x_min":64,"x_max":846,"o":"m 364 0 l 244 0 l 64 180 l 64 541 l 244 720 l 364 720 l 364 0 m 412 289 l 412 414 l 570 414 l 570 541 l 412 541 l 412 720 l 666 720 l 846 541 l 846 289 l 412 289 m 412 0 l 412 168 l 814 168 l 814 90 l 725 0 l 412 0 m 589 1090 l 714 1032 l 677 889 l 302 776 l 260 876 l 589 1090 z "},"ê":{"ha":903,"x_min":64,"x_max":846,"o":"m 364 0 l 244 0 l 64 180 l 64 541 l 244 720 l 364 720 l 364 0 m 412 289 l 412 414 l 570 414 l 570 541 l 412 541 l 412 720 l 666 720 l 846 541 l 846 289 l 412 289 m 412 0 l 412 168 l 814 168 l 814 90 l 725 0 l 412 0 m 756 848 l 693 782 l 453 924 l 214 782 l 150 848 l 350 1075 l 556 1075 l 756 848 z "},"ë":{"ha":903,"x_min":64,"x_max":846,"o":"m 364 0 l 244 0 l 64 180 l 64 541 l 244 720 l 364 720 l 364 0 m 412 289 l 412 414 l 570 414 l 570 541 l 412 541 l 412 720 l 666 720 l 846 541 l 846 289 l 412 289 m 412 0 l 412 168 l 814 168 l 814 90 l 725 0 l 412 0 m 159 1058 l 387 1058 l 387 867 l 159 867 l 159 1058 m 518 1058 l 746 1058 l 746 867 l 518 867 l 518 1058 z "},"ì":{"ha":443,"x_min":-33,"x_max":421,"o":"m 71 720 l 372 720 l 372 0 l 71 0 l 71 720 m 421 876 l 380 776 l 3 889 l -33 1032 l 92 1090 l 421 876 z "},"í":{"ha":443,"x_min":29,"x_max":484,"o":"m 71 720 l 372 720 l 372 0 l 71 0 l 71 720 m 359 1090 l 484 1032 l 447 889 l 71 776 l 29 876 l 359 1090 z "},"î":{"ha":443,"x_min":-81,"x_max":526,"o":"m 71 720 l 372 720 l 372 0 l 71 0 l 71 720 m 526 848 l 463 782 l 222 924 l -17 782 l -81 848 l 119 1075 l 326 1075 l 526 848 z "},"ï":{"ha":443,"x_min":-73,"x_max":515,"o":"m 71 720 l 372 720 l 372 0 l 71 0 l 71 720 m -73 1058 l 155 1058 l 155 867 l -73 867 l -73 1058 m 287 1058 l 515 1058 l 515 867 l 287 867 l 287 1058 z "},"ð":{"ha":918,"x_min":66,"x_max":846,"o":"m 302 799 l 412 854 l 343 934 l 560 1037 l 633 949 l 758 1006 l 817 890 l 715 838 l 844 655 l 846 180 l 666 0 l 546 0 l 546 652 l 480 741 l 368 688 l 302 799 m 366 180 l 498 180 l 498 0 l 246 0 l 66 180 l 66 476 l 246 638 l 498 638 l 498 476 l 366 476 l 366 180 z "},"ñ":{"ha":920,"x_min":71,"x_max":851,"o":"m 71 0 l 71 720 l 373 720 l 373 0 l 71 0 m 551 541 l 422 541 l 422 619 l 522 720 l 689 720 l 851 558 l 851 0 l 551 0 l 551 541 m 487 1057 l 560 954 l 606 954 l 699 1032 l 758 973 l 626 828 l 434 828 l 361 930 l 315 930 l 222 852 l 163 911 l 295 1057 l 487 1057 z "},"ò":{"ha":938,"x_min":64,"x_max":873,"o":"m 873 180 l 694 0 l 493 0 l 493 168 l 568 168 l 568 541 l 493 541 l 493 720 l 694 720 l 873 541 l 873 180 m 368 168 l 446 168 l 446 0 l 244 0 l 64 180 l 64 541 l 244 720 l 446 720 l 446 541 l 368 541 l 368 168 m 667 876 l 626 776 l 250 889 l 213 1032 l 338 1090 l 667 876 z "},"ó":{"ha":938,"x_min":64,"x_max":873,"o":"m 873 180 l 694 0 l 493 0 l 493 168 l 568 168 l 568 541 l 493 541 l 493 720 l 694 720 l 873 541 l 873 180 m 368 168 l 446 168 l 446 0 l 244 0 l 64 180 l 64 541 l 244 720 l 446 720 l 446 541 l 368 541 l 368 168 m 605 1090 l 730 1032 l 693 889 l 317 776 l 275 876 l 605 1090 z "},"ô":{"ha":938,"x_min":64,"x_max":873,"o":"m 873 180 l 694 0 l 493 0 l 493 168 l 568 168 l 568 541 l 493 541 l 493 720 l 694 720 l 873 541 l 873 180 m 368 168 l 446 168 l 446 0 l 244 0 l 64 180 l 64 541 l 244 720 l 446 720 l 446 541 l 368 541 l 368 168 m 772 848 l 709 782 l 469 924 l 229 782 l 165 848 l 366 1075 l 572 1075 l 772 848 z "},"õ":{"ha":938,"x_min":64,"x_max":873,"o":"m 873 180 l 694 0 l 493 0 l 493 168 l 568 168 l 568 541 l 493 541 l 493 720 l 694 720 l 873 541 l 873 180 m 368 168 l 446 168 l 446 0 l 244 0 l 64 180 l 64 541 l 244 720 l 446 720 l 446 541 l 368 541 l 368 168 m 496 1057 l 569 954 l 614 954 l 708 1032 l 767 973 l 635 828 l 443 828 l 370 930 l 324 930 l 231 852 l 172 911 l 304 1057 l 496 1057 z "},"ö":{"ha":938,"x_min":64,"x_max":873,"o":"m 873 180 l 694 0 l 493 0 l 493 168 l 568 168 l 568 541 l 493 541 l 493 720 l 694 720 l 873 541 l 873 180 m 368 168 l 446 168 l 446 0 l 244 0 l 64 180 l 64 541 l 244 720 l 446 720 l 446 541 l 368 541 l 368 168 m 174 1058 l 402 1058 l 402 867 l 174 867 l 174 1058 m 534 1058 l 762 1058 l 762 867 l 534 867 l 534 1058 z "},"÷":{"ha":976,"x_min":126,"x_max":850,"o":"m 126 502 l 850 502 l 850 340 l 126 340 l 126 502 m 376 782 l 600 782 l 600 621 l 376 621 l 376 782 m 376 221 l 600 221 l 600 58 l 376 58 l 376 221 z "},"ø":{"ha":920,"x_min":64,"x_max":856,"o":"m 174 73 l 64 180 l 64 541 l 250 720 l 473 720 l 425 541 l 370 541 l 370 180 l 386 180 l 386 179 l 437 179 l 350 -150 l 131 -93 l 174 73 m 747 646 l 856 541 l 856 180 l 670 0 l 450 0 l 496 179 l 550 180 l 550 541 l 485 541 l 570 865 l 789 808 l 747 646 z "},"ù":{"ha":916,"x_min":64,"x_max":845,"o":"m 845 720 l 845 0 l 545 0 l 545 720 l 845 720 m 364 180 l 498 180 l 498 90 l 411 0 l 245 0 l 64 180 l 64 720 l 364 720 l 364 180 m 653 876 l 612 776 l 235 889 l 199 1032 l 323 1090 l 653 876 z "},"ú":{"ha":916,"x_min":64,"x_max":845,"o":"m 845 720 l 845 0 l 545 0 l 545 720 l 845 720 m 364 180 l 498 180 l 498 90 l 411 0 l 245 0 l 64 180 l 64 720 l 364 720 l 364 180 m 591 1090 l 715 1032 l 679 889 l 303 776 l 261 876 l 591 1090 z "},"û":{"ha":916,"x_min":64,"x_max":845,"o":"m 845 720 l 845 0 l 545 0 l 545 720 l 845 720 m 364 180 l 498 180 l 498 90 l 411 0 l 245 0 l 64 180 l 64 720 l 364 720 l 364 180 m 758 848 l 694 782 l 454 924 l 215 782 l 151 848 l 351 1075 l 557 1075 l 758 848 z "},"ü":{"ha":916,"x_min":64,"x_max":845,"o":"m 845 720 l 845 0 l 545 0 l 545 720 l 845 720 m 364 180 l 498 180 l 498 90 l 411 0 l 245 0 l 64 180 l 64 720 l 364 720 l 364 180 m 160 1058 l 388 1058 l 388 867 l 160 867 l 160 1058 m 519 1058 l 747 1058 l 747 867 l 519 867 l 519 1058 z "},"ý":{"ha":828,"x_min":-9,"x_max":838,"o":"m 472 -251 l 184 -251 l 549 720 l 838 720 l 472 -251 m -9 720 l 290 720 l 391 427 l 256 60 l -9 720 m 557 1090 l 682 1032 l 645 889 l 269 776 l 227 876 l 557 1090 z "},"þ":{"ha":915,"x_min":71,"x_max":850,"o":"m 370 983 l 370 -240 l 71 -240 l 71 983 l 370 983 m 550 541 l 416 541 l 416 631 l 505 720 l 670 720 l 850 541 l 850 180 l 670 0 l 416 0 l 416 180 l 550 180 l 550 541 z "},"ÿ":{"ha":828,"x_min":-9,"x_max":838,"o":"m 472 -251 l 184 -251 l 549 720 l 838 720 l 472 -251 m -9 720 l 290 720 l 391 427 l 256 60 l -9 720 m 126 1058 l 354 1058 l 354 867 l 126 867 l 126 1058 m 486 1058 l 713 1058 l 713 867 l 486 867 l 486 1058 z "},"ı":{"ha":443,"x_min":71,"x_max":372,"o":"m 71 720 l 372 720 l 372 0 l 71 0 l 71 720 z "},"Œ":{"ha":1533,"x_min":58,"x_max":1469,"o":"m 777 60 l 715 0 l 516 0 l 516 180 l 629 180 l 629 720 l 516 720 l 516 900 l 715 900 l 778 840 l 837 900 l 928 900 l 928 532 l 1229 532 l 1229 375 l 928 375 l 928 0 l 837 0 l 777 60 m 359 180 l 471 180 l 471 0 l 239 0 l 58 180 l 58 720 l 239 900 l 471 900 l 471 720 l 359 720 l 359 180 m 975 720 l 975 900 l 1469 900 l 1469 630 l 1169 630 l 1169 720 l 975 720 m 975 0 l 975 180 l 1169 180 l 1169 270 l 1469 270 l 1469 0 l 975 0 z "},"œ":{"ha":1385,"x_min":64,"x_max":1325,"o":"m 477 720 l 633 720 l 696 660 l 755 720 l 911 720 l 911 541 l 844 541 l 844 180 l 911 180 l 911 0 l 755 0 l 694 60 l 633 0 l 477 0 l 477 180 l 545 180 l 545 541 l 477 541 l 477 720 m 892 294 l 892 426 l 1025 426 l 1025 541 l 959 541 l 959 720 l 1144 720 l 1325 541 l 1325 294 l 892 294 m 959 0 l 959 180 l 1295 180 l 1295 90 l 1204 0 l 959 0 m 364 180 l 430 180 l 430 0 l 244 0 l 64 180 l 64 541 l 244 720 l 430 720 l 430 541 l 364 541 l 364 180 z "},"ˆ":{"ha":841,"x_min":117,"x_max":724,"o":"m 724 848 l 661 782 l 420 924 l 181 782 l 117 848 l 317 1075 l 524 1075 l 724 848 z "},"˚":{"ha":777,"x_min":203,"x_max":570,"o":"m 410 814 l 410 920 l 463 920 l 463 1036 l 410 1036 l 410 1141 l 476 1141 l 570 1048 l 570 907 l 476 814 l 410 814 m 363 920 l 363 814 l 296 814 l 203 907 l 203 1048 l 296 1141 l 363 1141 l 363 1036 l 311 1036 l 311 920 l 363 920 z "},"˜":{"ha":888,"x_min":146,"x_max":742,"o":"m 471 1057 l 544 954 l 589 954 l 683 1032 l 742 973 l 610 828 l 418 828 l 345 930 l 299 930 l 205 852 l 146 911 l 279 1057 l 471 1057 z "},"–":{"ha":1101,"x_min":126,"x_max":975,"o":"m 126 502 l 975 502 l 975 340 l 126 340 l 126 502 z "},"—":{"ha":1350,"x_min":126,"x_max":1224,"o":"m 126 502 l 1224 502 l 1224 340 l 126 340 l 126 502 z "},"‘":{"ha":552,"x_min":111,"x_max":441,"o":"m 441 510 l 111 510 l 111 720 l 231 900 l 412 900 l 327 720 l 441 720 l 441 510 z "},"’":{"ha":552,"x_min":111,"x_max":441,"o":"m 111 900 l 441 900 l 441 690 l 321 510 l 140 510 l 225 690 l 111 690 l 111 900 z "},"‚":{"ha":552,"x_min":111,"x_max":441,"o":"m 111 210 l 441 210 l 441 -1 l 321 -180 l 140 -180 l 225 -1 l 111 -1 l 111 210 z "},"“":{"ha":964,"x_min":111,"x_max":854,"o":"m 441 510 l 111 510 l 111 720 l 231 900 l 412 900 l 327 720 l 441 720 l 441 510 m 854 510 l 524 510 l 524 720 l 644 900 l 825 900 l 740 720 l 854 720 l 854 510 z "},"”":{"ha":962,"x_min":111,"x_max":850,"o":"m 521 900 l 850 900 l 850 690 l 731 510 l 550 510 l 635 690 l 521 690 l 521 900 m 111 900 l 441 900 l 441 690 l 321 510 l 140 510 l 225 690 l 111 690 l 111 900 z "},"„":{"ha":962,"x_min":0,"x_max":0,"o":""},"•":{"ha":623,"x_min":101,"x_max":521,"o":"m 221 655 l 401 655 l 521 535 l 521 355 l 401 235 l 221 235 l 101 355 l 101 535 l 221 655 z "},"‹":{"ha":739,"x_min":137,"x_max":602,"o":"m 137 416 l 422 709 l 602 709 l 411 363 l 602 18 l 422 18 l 137 311 l 137 416 z "},"›":{"ha":739,"x_min":138,"x_max":602,"o":"m 602 311 l 317 18 l 138 18 l 328 363 l 138 708 l 317 708 l 602 415 l 602 311 z "},"⁄":{"ha":494,"x_min":0,"x_max":494,"o":"m 326 900 l 494 900 l 170 0 l 0 0 l 326 900 z "},"€":{"ha":1246,"x_min":127,"x_max":1090,"o":"m 138 614 l 221 614 l 221 752 l 401 932 l 521 932 l 521 614 l 717 614 l 717 517 l 521 517 l 521 418 l 699 418 l 699 321 l 521 321 l 521 0 l 401 0 l 221 180 l 221 321 l 127 321 l 127 418 l 221 418 l 221 517 l 138 517 l 138 614 m 566 752 l 566 932 l 911 932 l 1090 752 l 1090 610 l 791 610 l 791 752 l 566 752 m 566 0 l 566 180 l 791 180 l 791 321 l 1090 321 l 1090 180 l 911 0 l 566 0 z "},"−":{"ha":851,"x_min":126,"x_max":725,"o":"m 126 502 l 725 502 l 725 340 l 126 340 l 126 502 z "}}}
